<svg xmlns="http://www.w3.org/2000/svg" viewBox="0 0 175.67 108.49"><defs><style>.cls-1{stroke:#000;stroke-miterlimit:10;stroke-width:2px;}</style></defs><g id="Layer_2" data-name="Layer 2"><g id="Layer_1-2" data-name="Layer 1"><path class="cls-1" d="M6.39,50.4h.94c1.44,0,2.37,0,4.82-2.67V4.67C9.7,2,8.77,2,7.33,2H6.39V1H85.6V2H85c-2.3,0-4.61.79-9.14,3.17L44,21.59H85.52V44.13L71.41,51.4h-65ZM20.07,2V21.59h4.18c3.67,0,5.47-.93,11.23-3.88L66,2Zm0,20.59V50.4H54.42c2.88,0,4.39-.72,8.78-3L80.77,38.3c3-1.59,3.75-3.67,3.75-8.28V22.6Z"/><path class="cls-1" d="M89.53,21.59h1.15c2.3,0,4.6-.79,9.14-3.16L133.66,1h35.72V2h-4.23c-1.44,0-.2,39.2-.2,39.2a5.52,5.52,0,0,0,2.9,5l6.37,3.43a1,1,0,0,1-.52,1.79H149.87v-1h.93c1.44,0,2.38,0,4.83-2.67V22.6H90.53V30c0,4.61.72,6.69,3.75,8.28l17.57,9.07c4.39,2.31,5.9,3,8.78,3h.65v1H103.64L89.53,44.13Zm66.1,0V2h-4.18c-3.67,0-5.47.93-11.23,3.89L109.69,21.59Z"/><path class="cls-1" d="M1,97.94V88H2v.5a6.23,6.23,0,0,0,3.74,5.91l17.57,9.07c4,2.09,45.46-7.11,53-8.81a6.18,6.18,0,0,0,3-1.57c1.47-1.45,1.88-3.46,1.88-7h0a7.42,7.42,0,0,0-7.42-7.42H5.5v-1h5c3.67,0,5.47-.93,11.23-3.89l32.48-16.7h23.4v1H71.31c-2.3,0-4.61.79-9.14,3.16l-17.49,9a3.92,3.92,0,0,0,1.79,7.41H82.26v22.54l-14.12,7.27h-53Z"/><path class="cls-1" d="M81.16,57.09h44.29L120,61.46s-22.68-3.36-25.2-.63v42.92c2.52,2.73,3.46,2.73,4.9,2.73h.94v1H81.16v-1h.94c1.44,0,2.38,0,4.82-2.66V60.76c-2.44-2.66-3.38-2.66-4.82-2.66h-.94Z"/><path class="cls-1" d="M107.28,77.68h2.45c3.67,0,5.47-.93,11.23-3.89l32.47-16.7h19.44v1H170.5c-2.31,0-4.61.79-9.15,3.16L137.27,73a47.17,47.17,0,0,1-20.61,4.75h0a8.37,8.37,0,0,0-8.38,8.37h0c0,4.68.72,6.69,3.75,8.28l23.4,13.1h8.14c2.88,0,4.39-1.73,8.78-4l17.57-9.07a6.23,6.23,0,0,0,3.75-5.91V88h1v12.24l-14.11,7.27H121.39l-14.11-7.27Z"/></g></g></svg>