<svg xmlns="http://www.w3.org/2000/svg" viewBox="0 0 288.65 87.95"><defs><style>.cls-1{stroke:#000;stroke-width:8px;}.cls-1,.cls-2,.cls-3{stroke-miterlimit:10;}.cls-2,.cls-3{fill:none;stroke:#fff;stroke-linecap:round;}.cls-2{stroke-width:4px;}.cls-3{stroke-width:3px;}</style></defs><g id="Layer_2" data-name="Layer 2"><g id="Layer_1-2" data-name="Layer 1"><path class="cls-1" d="M283.87,28.48l-9.93,9.13a7.18,7.18,0,0,1-4.88,1.91H243.77a5.54,5.54,0,0,0-5,3.09l-8.8,18a3.58,3.58,0,0,0,3.22,5.16H265a1.76,1.76,0,0,1,1.33,2.91l-9,10.42A14.07,14.07,0,0,1,246.72,84H214.31a3.39,3.39,0,0,1-3.2-2.26l-6.53-15.41a5.4,5.4,0,0,0-9.32-1.07L183.11,81.84A4.41,4.41,0,0,1,179.35,84H6.72a2.73,2.73,0,0,1-2.5-3.8L35.08,8.58a7.59,7.59,0,0,1,7-4.58h28a2.08,2.08,0,0,1,1.5,3.52l-13.38,14a1.68,1.68,0,0,0,1.22,2.84H282.25A2.38,2.38,0,0,1,283.87,28.48Z"/><path class="cls-2" d="M28.11,51.59,54.45,52a5.42,5.42,0,0,1,4.77,7.81L53.74,71a16.83,16.83,0,0,1-15.14,9.4l-29,0a.9.9,0,0,1-.83-1.26L39,7.63a.92.92,0,0,1,.83-.55H64.26A.91.91,0,0,1,65,8.57l-6.9,8A6.89,6.89,0,0,0,59.75,27h0a.94.94,0,0,0,.46.13h58.46a10,10,0,0,1,8.72,5.16l17.11,22A8.25,8.25,0,0,1,144,65.05h0a6.16,6.16,0,0,1-9.2-.3L120.65,47.82a3.18,3.18,0,0,0-5.4.84l-10.2,25.12a10.63,10.63,0,0,1-9.82,6.57l-56.63,0"/><path class="cls-2" d="M103.55,52.87H88.27A11,11,0,0,0,80.54,56l-19,18.58a3.59,3.59,0,0,0,2.86,5.75h16"/><path class="cls-2" d="M118.67,27.14h42.41A7.42,7.42,0,0,1,168,37.22L154.63,72.05a12.94,12.94,0,0,1-12.08,8.3H95.23"/><line class="cls-3" x1="158.39" y1="27.14" x2="158.39" y2="27.14"/><path class="cls-2" d="M158.39,27.14H277.63a.89.89,0,0,1,.59,1.57l-8.07,7.09a.9.9,0,0,1-.59.22H238.69a.89.89,0,0,0-.82.54L224.48,67.11a.9.9,0,0,0,.83,1.26H258.9a.9.9,0,0,1,.66,1.51s-3.9,4.17-6.83,7.25a10.57,10.57,0,0,1-7.53,3.27c-5.11.06-18.43.14-25.68.18a5.83,5.83,0,0,1-5.76-4.77S201.7,39.33,200.87,40.93c-6.36,12.33-19.45,32.7-20.55,34.21A12.79,12.79,0,0,1,170,80.41l-33.31-.06"/></g></g></svg>